# xmcd
#
# Track frame offsets: 
#        150
#        19932
#        34622
#        46332
#        62647
#        80482
#        97507
#        118030
#        130660
#        147040
#        173655
#        185955
#        200645
#
# Disc length: 2980 seconds
#
# Revision: 1
# Processed by: cddbd v1.5.2PL0 Copyright (c) Steve Scherf et al.
# Submitted via: ExactAudioCopy v1.3
#
DISCID=aa0ba20d
DTITLE=Various Artist - SLOW MOTION
DYEAR=1990
DGENRE=Soul
TTITLE0=Always and Forever - George Kerr
TTITLE1=Dreaming's Out of Season - Montclairs, The
TTITLE2=Our Love - Bobby Powell
TTITLE3=Let's Make Love ( At Home Sometime ) - Escorts, The
TTITLE4=I Want To Be With You Tonight - Bobby Mcclure
TTITLE5=Reaching Out To You - Barbara Carr
TTITLE6=Let Me Go Love - Philippe Wynne
TTITLE7=Coming Back To You - First Class
TTITLE8=Special Lady - Willie Clayton
TTITLE9=You Sure Love To Ball - Sylvia
TTITLE10=Can I Help It - Ivory Joe Hunter
TTITLE11=Ooh Baby Baby - Whatnauts, The
TTITLE12=If I Were Your Woman - Main Ingredient
EXTD=
EXTT0=
EXTT1=
EXTT2=
EXTT3=
EXTT4=
EXTT5=
EXTT6=
EXTT7=
EXTT8=
EXTT9=
EXTT10=
EXTT11=
EXTT12=
PLAYORDER=
